<?xml version="1.0" standalone="no"?>
<svg viewBox="0 0 200 200" xmlns="http://www.w3.org/2000/svg">
  <path fill="#8B72B6" d="M49,-75.9C64,-66.5,77.1,-53.9,77.6,-39.4C78.2,-24.9,66.1,-8.5,60.2,6.2C54.2,20.9,54.3,34,49.5,47.1C44.7,60.1,35,73.1,22,78.7C9,84.2,-7.3,82.3,-21.2,76.3C-35,70.3,-46.4,60.2,-51.4,48.1C-56.5,36,-55.1,21.9,-58.8,7.4C-62.5,-7,-71.2,-21.8,-67.7,-31.6C-64.3,-41.4,-48.6,-46.3,-35.2,-56.4C-21.9,-66.6,-11,-82,3,-86.7C17,-91.3,33.9,-85.2,49,-75.9Z" transform="translate(100 100)" />
</svg>
